<?xml version="1.0" standalone="no"?>
<!DOCTYPE svg PUBLIC "-//W3C//DTD SVG 20010904//EN"
 "http://www.w3.org/TR/2001/REC-SVG-20010904/DTD/svg10.dtd">
<svg version="1.0" xmlns="http://www.w3.org/2000/svg"
 width="530.000000pt" height="530.000000pt" viewBox="0 0 530.000000 530.000000"
 preserveAspectRatio="xMidYMid meet">
<metadata>
Created by potrace 1.14, written by Peter Selinger 2001-2017
</metadata>
<g transform="translate(0.000000,530.000000) scale(0.100000,-0.100000)"
fill="#000000" stroke="none">
<path d="M1611 5069 c-123 -82 -236 -230 -276 -360 l-18 -56 -86 38 c-185 80
-422 137 -598 146 -148 7 -143 11 -119 -125 44 -250 147 -445 330 -628 110
-110 212 -183 338 -244 44 -22 83 -41 85 -44 2 -2 -14 -40 -36 -85 -140 -278
-247 -658 -281 -1000 -5 -57 -10 -183 -10 -280 l0 -177 -46 -44 c-136 -134
-248 -340 -290 -535 -22 -107 -22 -303 1 -410 43 -203 132 -370 270 -510 129
-130 259 -213 498 -315 584 -249 937 -298 1352 -186 355 96 580 267 692 526
139 324 134 723 -13 1037 l-34 71 35 89 c80 196 127 400 146 630 l12 138 91
-23 c114 -30 342 -41 466 -23 171 25 365 99 499 190 90 61 186 154 179 173 -9
21 -160 141 -240 189 -91 55 -233 116 -332 141 -45 12 -84 24 -88 27 -4 4 8
28 26 54 94 133 128 308 91 481 -16 78 -28 96 -61 96 -19 0 -30 -14 -64 -83
-110 -227 -329 -389 -645 -478 -44 -12 -86 -27 -94 -33 -17 -13 -10 -193 10
-251 l14 -40 69 -3 c38 -2 99 2 135 7 58 9 80 7 176 -15 106 -24 248 -64 303
-86 l27 -10 -40 -15 c-107 -38 -343 -84 -485 -95 -30 -3 -35 -7 -35 -28 l0
-25 95 3 c125 4 259 31 414 83 144 47 178 68 157 93 -12 14 -193 78 -298 105
-24 6 -61 16 -84 22 l-41 10 84 40 c46 22 107 59 136 81 l52 41 94 -23 c110
-26 129 -36 103 -51 -27 -16 -50 -68 -43 -101 3 -16 19 -49 36 -73 37 -53 38
-81 5 -129 -46 -68 -22 -132 60 -160 l39 -14 -69 -21 c-219 -68 -501 -68 -716
-2 -71 23 -83 18 -85 -29 -10 -188 -71 -496 -145 -727 l-30 -93 -38 47 c-59
75 -164 168 -238 212 -147 87 -272 122 -523 145 -224 21 -253 28 -479 104
l-196 67 -200 0 c-172 -1 -212 -4 -288 -23 -114 -28 -218 -77 -289 -135 -31
-26 -59 -47 -61 -47 -5 0 3 382 8 388 2 2 20 -8 40 -23 72 -48 119 -31 224 85
110 120 146 133 279 105 31 -7 33 -6 53 40 41 93 19 168 -95 325 -34 47 -75
109 -91 138 -16 29 -47 69 -68 89 -38 34 -43 35 -93 30 -30 -3 -54 -4 -54 -2
0 1 7 20 16 41 28 65 94 265 94 284 0 12 -26 29 -86 55 -228 102 -422 276
-549 493 -39 67 -40 81 -7 63 12 -6 36 -11 56 -11 43 0 66 28 66 83 0 35 3 39
43 57 84 37 98 77 53 149 -15 24 -25 46 -21 49 11 11 161 -40 290 -99 l130
-60 0 -124 c1 -69 0 -125 -1 -125 -1 0 -41 19 -90 41 -148 70 -287 119 -301
107 -7 -6 -13 -15 -13 -21 0 -18 101 -180 170 -272 82 -109 251 -275 280 -275
38 0 20 32 -76 133 -94 100 -209 245 -253 320 l-23 37 54 -20 c124 -49 288
-134 288 -149 0 -29 98 -215 149 -281 27 -36 80 -95 119 -132 65 -64 72 -67
98 -58 58 21 224 181 224 216 0 8 -31 65 -69 128 -75 125 -131 251 -164 366
-18 63 -21 102 -21 245 0 156 2 177 26 255 17 56 23 89 17 96 -22 26 -50 22
-108 -17z m176 -2702 c42 -42 56 -246 23 -341 -46 -135 -142 -266 -223 -305
-54 -26 -77 -26 -111 0 -86 68 -87 257 -1 435 80 166 246 278 312 211z m954
-217 c52 -28 85 -169 76 -317 -18 -273 -196 -472 -322 -362 -91 80 -86 318 11
514 64 132 165 202 235 165z m-1401 -743 c59 -20 48 -85 -12 -73 l-29 6 41
-59 c185 -263 399 -410 660 -451 259 -40 525 48 735 244 l60 56 -33 29 c-37
32 -40 64 -7 69 48 7 165 -144 165 -211 0 -50 -52 -42 -65 10 l-6 26 -47 -45
c-137 -130 -288 -206 -487 -243 -69 -13 -123 -16 -230 -12 -177 6 -275 30
-420 102 -180 88 -293 196 -378 362 -36 72 -40 85 -29 103 15 25 1 27 -51 5
-38 -16 -62 -12 -71 11 -10 25 6 46 48 65 47 21 105 23 156 6z"/>
<path d="M2767 4960 c-74 -19 -143 -63 -226 -146 l-83 -83 -33 25 c-50 38
-131 65 -211 71 -151 12 -287 -64 -351 -195 -23 -48 -28 -70 -28 -137 0 -71 4
-88 33 -147 36 -74 98 -135 175 -174 45 -23 47 -26 47 -68 0 -63 35 -188 72
-259 44 -86 165 -205 249 -245 130 -64 255 -78 370 -42 35 10 79 32 97 47 l34
28 38 -36 c122 -116 321 -80 477 85 131 137 148 260 51 358 l-35 34 40 45
c118 131 122 295 11 418 -46 51 -90 75 -169 90 -88 18 -151 40 -168 59 -8 9
-18 38 -21 64 -17 114 -129 204 -266 213 -36 2 -82 0 -103 -5z"/>
<path d="M1985 3588 c-160 -96 -237 -234 -206 -366 24 -98 106 -161 212 -162
91 0 145 24 220 99 76 77 110 142 117 227 6 74 -9 123 -51 171 -42 48 -99 73
-167 73 -47 0 -65 -6 -125 -42z"/>
<path d="M2638 3060 c-19 -15 -21 -22 -13 -46 6 -16 33 -45 60 -66 131 -100
311 -115 430 -36 47 31 66 69 48 97 -12 19 -22 18 -128 -5 -105 -23 -194 -11
-299 39 -74 35 -76 35 -98 17z"/>
<path d="M2944 2686 c-44 -19 -64 -53 -64 -106 0 -43 -3 -48 -34 -63 -45 -21
-57 -67 -29 -106 32 -42 81 -70 147 -82 57 -11 66 -17 146 -94 98 -95 114
-105 169 -105 33 0 49 7 79 34 l37 34 5 109 c4 85 10 117 28 150 24 46 28 93
11 125 -15 27 -61 45 -144 53 -38 4 -112 21 -164 36 -103 32 -141 35 -187 15z"/>
</g>
</svg>
